# xmcd
#
# Track frame offsets:
#	150
#	21915
#	42654
#	60019
#	78085
#	97258
#	119106
#	136120
#	154456
#	163611
#	180976
#	196072
#	210276
#	232988
#
# Disc length: 3370 seconds
#
# Revision: 1
# Processed by: cddbd v1.5.1PL0 Copyright (c) Steve Scherf et al.
# Submitted via: EasyCDDAExtractor 7.0.6.1
#
DISCID=b00d280e
DTITLE=Ed Motta - Perfil
DYEAR=1900
DGENRE=
TTITLE0=Fora da lei
TTITLE1=Colombina
TTITLE2=Manuel
TTITLE3=Vendaval
TTITLE4=Azul da cor do mar
TTITLE5=Daqui pro Meier
TTITLE6=Vamos dançar
TTITLE7=Solução
TTITLE8=Caso sério
TTITLE9=Doce ilusão
TTITLE10=Nascente
TTITLE11=Falso milagre do amor
TTITLE12=Garota de Ipanema
TTITLE13=Colombina
EXTD=
EXTT0=
EXTT1=
EXTT2=
EXTT3=
EXTT4=
EXTT5=
EXTT6=
EXTT7=
EXTT8=
EXTT9=
EXTT10=
EXTT11=
EXTT12=
EXTT13=
PLAYORDER=
